<svg width="173" height="170" viewBox="0 0 173 170" fill="none" xmlns="http://www.w3.org/2000/svg">
<path d="M137.319 34.7792C130.709 28.2208 122.837 23.0206 114.162 19.4817C105.487 15.9429 96.1814 14.1361 86.7883 14.1667C47.4308 14.1667 15.3538 45.6875 15.3538 84.3625C15.3538 96.7583 18.6696 108.8 24.8688 119.425L14.7771 155.833L52.6209 146.058C63.0729 151.654 74.8225 154.629 86.7883 154.629C126.146 154.629 158.223 123.108 158.223 84.4333C158.223 65.6625 150.798 48.025 137.319 34.7792ZM86.7883 142.729C76.12 142.729 65.6679 139.896 56.5133 134.583L54.3508 133.308L31.8608 139.117L37.8438 117.583L36.4021 115.388C30.4736 106.087 27.3263 95.3365 27.3196 84.3625C27.3196 52.2042 53.9904 25.9958 86.7163 25.9958C102.575 25.9958 117.496 32.0875 128.669 43.1375C134.202 48.5482 138.587 54.9847 141.569 62.0736C144.551 69.1625 146.071 76.7627 146.041 84.4333C146.185 116.592 119.514 142.729 86.7883 142.729ZM119.37 99.0958C117.568 98.2458 108.774 93.9958 107.188 93.3583C105.53 92.7917 104.377 92.5083 103.151 94.2083C101.926 95.9792 98.5379 99.9458 97.5288 101.079C96.5196 102.283 95.4383 102.425 93.6363 101.504C91.8342 100.654 86.0675 98.7417 79.2917 92.7917C73.9575 88.1167 70.4254 82.3792 69.3442 80.6083C68.335 78.8375 69.2 77.9167 70.1371 76.9958C70.93 76.2167 71.9392 74.9417 72.8042 73.95C73.6692 72.9583 74.0296 72.1792 74.6063 71.0458C75.1829 69.8417 74.8946 68.85 74.4621 68C74.0296 67.15 70.4254 58.5083 68.9838 54.9667C67.5421 51.5667 66.0284 51.9917 64.9471 51.9208H61.4871C60.2617 51.9208 58.3875 52.3458 56.7296 54.1167C55.1438 55.8875 50.5304 60.1375 50.5304 68.7792C50.5304 77.4208 56.9459 85.7792 57.8109 86.9125C58.6759 88.1167 70.4254 105.825 88.3021 113.404C92.555 115.246 95.8708 116.308 98.4658 117.088C102.719 118.433 106.611 118.221 109.711 117.796C113.171 117.3 120.307 113.546 121.749 109.438C123.263 105.329 123.263 101.858 122.758 101.079C122.253 100.3 121.172 99.9458 119.37 99.0958Z" fill="black"/>
</svg>
